<?xml version="1.0" encoding="iso-8859-1"?>
<!-- Generator: Adobe Illustrator 19.0.0, SVG Export Plug-In . SVG Version: 6.00 Build 0)  -->
<svg version="1.1" id="Capa_1" xmlns="http://www.w3.org/2000/svg" xmlns:xlink="http://www.w3.org/1999/xlink" x="0px" y="0px"
	 viewBox="0 0 512 512" style="enable-background:new 0 0 512 512;" xml:space="preserve">
<g>
	<g>
		<path d="M271.001,62.873V15c0-8.291-6.709-15-15-15s-15,6.709-15,15v47.873c-29.193,4.29-54.699,20.948-70.937,44.127
			c19.005,27.129,50.378,45,85.937,45c35.559,0,66.932-17.871,85.937-45C325.7,83.821,300.194,67.163,271.001,62.873z"/>
	</g>
</g>
<g>
	<g>
		<path d="M446.607,65.395l-60-61c-5.859-5.859-15.352-5.859-21.211,0s-5.859,15.352,0,21.211l55.605,56.605V186.38l-34.048,11.977
			c-3.193,13.312-8.474,25.721-15.295,37.183l69.324-24.39c6.006-2.109,10.02-7.778,10.02-14.15V76
			C451.002,72.016,449.42,68.207,446.607,65.395z"/>
	</g>
</g>
<g>
	<g>
		<path d="M144.028,25.605c5.859-5.859,5.859-15.352,0-21.211c-5.859-5.859-15.352-5.859-21.211,0l-59.422,61
			c-2.812,2.813-4.394,6.622-4.394,10.606v121c0,6.372,4.014,12.041,10.02,14.15l71.932,25.508
			c-6.964-11.457-12.272-23.936-15.588-37.284L89.001,186.38V82.211L144.028,25.605z"/>
	</g>
</g>
<g>
	<g>
		<circle cx="256.001" cy="332" r="60"/>
	</g>
</g>
<g>
	<g>
		<path d="M507.606,336.394l-61-59.999c-2.812-2.813-6.621-4.395-10.605-4.395h-60c-2.329,0-4.629,0.542-6.709,1.582l-33.891,16.945
			c4.667,8.893,7.863,18.56,9.327,28.883L379.546,302h50.244l56.605,55.605c5.859,5.859,15.352,5.859,21.211,0
			C513.465,351.746,513.465,342.253,507.606,336.394z"/>
	</g>
</g>
<g>
	<g>
		<path d="M446.606,396.395l-60-60c-2.812-2.813-6.621-4.395-10.605-4.395h-30c0,10.571-2.166,20.57-5.528,30h29.317l51.211,51.211
			V467c0,8.291,6.709,15,15,15c8.291,0,15-6.709,15-15v-60C451.001,403.016,449.419,399.207,446.606,396.395z"/>
	</g>
</g>
<g>
	<g>
		<path d="M356.606,396.395l-21.81-21.81c-4.873,8.976-11.079,17.025-18.586,23.835l14.791,14.791v50.244l-13.418,26.836
			c-3.706,7.412-0.703,16.421,6.709,20.127c7.487,3.717,16.439,0.645,20.127-6.709l15-30c1.04-2.08,1.582-4.38,1.582-6.709v-60
			C361.001,403.016,359.419,399.207,356.606,396.395z"/>
	</g>
</g>
<g>
	<g>
		<path d="M179.001,463.455v-50.244l15.38-15.958c-7.383-6.974-13.385-15.234-18.082-24.34l-22.903,23.481
			c-2.813,2.813-4.395,6.622-4.395,10.606v60c0,2.329,0.542,4.629,1.582,6.709l15,30c3.691,7.361,12.647,10.422,20.127,6.709
			c7.412-3.706,10.415-12.715,6.709-20.127L179.001,463.455z"/>
	</g>
</g>
<g>
	<g>
		<path d="M166.001,332h-32.578c-3.984,0-7.793,1.582-10.605,4.395l-60.422,60c-2.813,2.812-4.395,6.621-4.395,10.605v60
			c0,8.291,6.709,15,15,15s15-6.709,15-15v-53.789L139.634,362h31.897C168.169,352.57,166.001,342.571,166.001,332z"/>
	</g>
</g>
<g>
	<g>
		<path d="M140.132,273.582c-2.08-1.04-4.38-1.582-6.709-1.582h-61c-3.984,0-7.793,1.582-10.605,4.395l-57.422,60
			c-5.86,5.859-5.86,15.351,0,21.21c5.859,5.859,15.352,5.859,21.211,0L78.634,302h51.244l37.271,18.636
			c1.328-10.375,4.343-20.129,8.903-29.095L140.132,273.582z"/>
	</g>
</g>
<g>
	<g>
		<path d="M356.046,136.81C331.314,164.334,295.834,182,256.001,182s-75.313-17.666-100.045-45.19
			c-2.917,9.625-4.955,19.625-4.955,30.19c0,39.223,21.881,73.092,53.835,91.117C219.385,248.008,236.98,242,256.001,242
			s36.616,6.008,51.165,16.117c31.954-18.025,53.835-51.894,53.835-91.117C361.001,156.435,358.963,146.435,356.046,136.81z"/>
	</g>
</g>
<g>
	<g>
		<path d="M271.001,420.484V437c0,8.291,6.709,15,15,15c8.291,0,15-6.709,15-15v-27.517
			C291.855,414.815,281.817,418.653,271.001,420.484z"/>
	</g>
</g>
<g>
	<g>
		<path d="M211.001,409.483V437c0,8.291,6.709,15,15,15s15-6.709,15-15v-16.516C230.185,418.653,220.147,414.815,211.001,409.483z"
			/>
	</g>
</g>
<g>
</g>
<g>
</g>
<g>
</g>
<g>
</g>
<g>
</g>
<g>
</g>
<g>
</g>
<g>
</g>
<g>
</g>
<g>
</g>
<g>
</g>
<g>
</g>
<g>
</g>
<g>
</g>
<g>
</g>
</svg>
