<svg viewBox="0 -76 512.00051 512" xmlns="http://www.w3.org/2000/svg"><path d="m256 70c132.550781 0 246 140 246 140s-113.449219 140-246 140-246-140-246-140 113.449219-140 246-140zm0 0" fill="#fff"/><path d="m326.710938 139.289062c39.050781 39.050782 39.050781 102.371094 0 141.421876-39.050782 39.050781-102.371094 39.050781-141.421876 0-39.046874-39.050782-39.046874-102.371094 0-141.421876 39.050782-39.046874 102.371094-39.046874 141.421876 0zm0 0" fill="#a9def8"/><path d="m298.429688 167.570312c-23.570313-23.554687-61.855469-23.445312-85.277344.429688-22.96875 23.40625-22.910156 61.082031.417968 84.429688 23.628907 23.550781 61.535157 23.308593 84.859376 0 23.429687-23.4375 23.429687-61.417969 0-84.859376zm0 0" fill="#3a5361"/><path d="m270.140625 195.859375c7.800781 7.789063 7.808594 20.480469 0 28.28125-7.800781 7.808594-20.488281 7.800781-28.28125 0-7.800781-7.789063-7.808594-20.480469 0-28.28125 7.800781-7.808594 20.492187-7.800781 28.28125 0zm0 0" fill="#fff"/><path d="m207.109375 175.210938c3.929687 3.328124 9.832031 3.140624 13.53125-.570313 3.710937-3.699219 3.898437-9.601563.570313-13.53125-.179688-.210937-.371094-.410156-.570313-.609375-3.898437-3.898438-10.230469-3.898438-14.140625 0-3.898438 3.910156-3.898438 10.242188 0 14.140625.199219.199219.402344.390625.609375.570313zm0 0"/><path d="m3.128906 114.726562c-4.011718 3.792969-4.1875 10.125-.394531 14.136719 3.796875 4.011719 10.125 4.1875 14.136719.390625 27.09375-25.628906 124.414062-109.253906 239.128906-109.253906 114.71875 0 212.035156 83.625 239.128906 109.253906 4.03125 3.816406 10.359375 3.601563 14.136719-.390625 3.792969-4.011719 3.617187-10.34375-.394531-14.136719-66.507813-62.917968-160.035156-114.726562-252.871094-114.726562-92.988281 0-186.523438 51.960938-252.871094 114.726562zm0 0"/><path d="m509.769531 216.296875c2.972657-3.671875 2.972657-8.921875 0-12.59375-1.1875-1.464844-29.605469-36.292969-74.917969-71.59375-51.617187-40.207031-113.949218-72.109375-178.851562-72.109375-64.898438 0-127.230469 31.902344-178.851562 72.109375-45.3125 35.300781-73.730469 70.128906-74.917969 71.59375-2.972657 3.671875-2.972657 8.921875 0 12.59375 1.1875 1.464844 29.605469 36.292969 74.917969 71.59375 51.617187 40.207031 113.949218 72.109375 178.851562 72.109375 64.898438 0 127.230469-31.902344 178.851562-72.109375 45.3125-35.300781 73.730469-70.128906 74.917969-71.59375zm-87.558593 56.085937c-39.675782 30.847657-100.71875 67.617188-166.210938 67.617188-65.488281 0-126.53125-36.769531-166.210938-67.617188-32.527343-25.289062-56.445312-50.871093-66.617187-62.382812 10.175781-11.511719 34.09375-37.097656 66.617187-62.382812 39.679688-30.847657 100.722657-67.617188 166.210938-67.617188 65.492188 0 126.535156 36.769531 166.210938 67.617188 32.523437 25.285156 56.445312 50.871093 66.617187 62.382812-10.171875 11.511719-34.09375 37.097656-66.617187 62.382812zm0 0"/><path d="m178.21875 132.21875c-42.886719 42.890625-42.886719 112.675781 0 155.5625 42.890625 42.886719 112.671875 42.890625 155.5625 0 42.890625-42.886719 42.890625-112.671875 0-155.5625-42.890625-42.886719-112.671875-42.886719-155.5625 0zm141.417969 141.417969c-35.089844 35.09375-92.1875 35.09375-127.273438 0-35.09375-35.089844-35.09375-92.183594 0-127.277344 35.089844-35.089844 92.183594-35.089844 127.273438 0 35.09375 35.09375 35.09375 92.1875 0 127.277344zm0 0"/><path d="m248.625 140.386719c-5.492188.578125-9.476562 5.496093-8.898438 10.988281.578126 5.492188 5.496094 9.46875 10.988282 8.898438 14.796875-1.554688 29.671875 3.402343 40.644531 14.367187 19.488281 19.496094 19.488281 51.222656.003906 70.714844-20.652343 20.636719-51.984375 18.671875-71.011719-.214844-9.875-9.804687-15.816406-23.863281-14.074218-40.425781.578125-5.492188-3.40625-10.414063-8.898438-10.992188-5.511718-.570312-10.414062 3.40625-10.992187 8.898438-2.328125 22.117187 5.824219 42.757812 20.347656 57.152344 27.214844 26.980468 71.371094 27.105468 98.769531-.273438 27.285156-27.296875 27.285156-71.707031-.003906-99.003906-15.191406-15.175782-35.925781-22.3125-56.875-20.109375zm0 0"/><path d="m277.207031 231.214844c11.734375-11.71875 11.714844-30.734375.007813-42.421875-11.71875-11.734375-30.730469-11.710938-42.421875-.007813-11.734375 11.722656-11.710938 30.734375-.007813 42.421875 11.703125 11.71875 30.703125 11.730469 42.421875.007813zm-28.269531-28.289063c3.875-3.882812 10.21875-3.914062 14.136719.011719 3.894531 3.890625 3.898437 10.234375 0 14.125-.003907.003906-.007813.007812-.011719.011719-3.875 3.882812-10.21875 3.914062-14.136719-.011719-3.867187-3.859375-3.929687-10.203125.011719-14.136719zm0 0"/></svg>