<?xml version="1.0" encoding="iso-8859-1"?>
<!-- Generator: Adobe Illustrator 19.0.0, SVG Export Plug-In . SVG Version: 6.00 Build 0)  -->
<svg version="1.1" id="Capa_1" xmlns="http://www.w3.org/2000/svg" xmlns:xlink="http://www.w3.org/1999/xlink" x="0px" y="0px"
	 viewBox="0 0 512 512" style="enable-background:new 0 0 512 512;" xml:space="preserve">
<circle style="fill:#005C83;" cx="256" cy="256" r="256"/>
<path style="fill:#00263F;" d="M91.596,309.013l200.449,200.45c112.557-15.865,201.588-104.915,217.425-217.48l-91.826-91.826
	L91.596,309.013z"/>
<path style="fill:#FFFFFF;" d="M256,136.385c-88.749,0-173.8,50.493-197.52,119.615C82.2,325.123,167.251,375.615,256,375.615
	S429.8,325.123,453.52,256C429.8,186.877,344.749,136.385,256,136.385z"/>
<path style="fill:#E0E0E0;" d="M256,136.385c-0.016,0-0.032,0-0.048,0v239.229c0.016,0,0.032,0,0.048,0
	c88.749,0,173.8-50.492,197.521-119.615C429.8,186.878,344.749,136.385,256,136.385z"/>
<circle style="fill:#35CCFF;" cx="256" cy="256" r="111.67"/>
<path style="fill:#00BAFF;" d="M256,144.333c-0.016,0-0.032,0-0.048,0v223.333c0.016,0,0.032,0,0.048,0
	c61.672,0,111.667-49.995,111.667-111.667S317.672,144.333,256,144.333z"/>
<path style="fill:#808080;" d="M332.37,256c0-3.948-0.393-7.797-0.971-11.583L349,234.255l-27.668-47.923l-17.557,10.136
	c-6.019-4.836-12.793-8.743-20.107-11.59v-20.291h-55.336v20.291c-7.314,2.848-14.088,6.754-20.107,11.59l-17.557-10.136
	L163,234.255l17.601,10.162c-0.578,3.787-0.971,7.635-0.971,11.583s0.393,7.796,0.971,11.583L163,277.745l27.668,47.923
	l17.557-10.136c6.019,4.836,12.793,8.742,20.107,11.59v20.291h55.336v-20.291c7.314-2.848,14.088-6.753,20.107-11.59l17.557,10.136
	L349,277.745l-17.601-10.162C331.977,263.796,332.37,259.948,332.37,256z M255.999,289.327c-18.405,0-33.326-14.92-33.326-33.326
	s14.921-33.326,33.326-33.326s33.326,14.921,33.326,33.326S274.405,289.327,255.999,289.327z"/>
<path style="fill:#333333;" d="M332.369,256c0-3.949-0.393-7.797-0.97-11.583L349,234.255l-27.668-47.922l-17.557,10.136
	c-6.019-4.836-12.793-8.743-20.107-11.59v-20.291h-27.716v58.089c0.016,0,0.031-0.001,0.047-0.001
	c18.405,0,33.326,14.921,33.326,33.326s-14.92,33.325-33.325,33.325c-0.016,0-0.031-0.001-0.047-0.001v58.087h27.716v-20.291
	c7.314-2.848,14.088-6.753,20.107-11.59l17.557,10.136L349,277.745l-17.601-10.162C331.977,263.796,332.369,259.948,332.369,256z"/>
<g>
</g>
<g>
</g>
<g>
</g>
<g>
</g>
<g>
</g>
<g>
</g>
<g>
</g>
<g>
</g>
<g>
</g>
<g>
</g>
<g>
</g>
<g>
</g>
<g>
</g>
<g>
</g>
<g>
</g>
</svg>
