<?xml version="1.0" encoding="iso-8859-1"?>
<!-- Generator: Adobe Illustrator 19.0.0, SVG Export Plug-In . SVG Version: 6.00 Build 0)  -->
<svg version="1.1" id="Capa_1" xmlns="http://www.w3.org/2000/svg" xmlns:xlink="http://www.w3.org/1999/xlink" x="0px" y="0px"
	 viewBox="0 0 512 512" style="enable-background:new 0 0 512 512;" xml:space="preserve">
<circle style="fill:#F24976;" cx="264.25" cy="267" r="245"/>
<path style="fill:#EEF6FF;" d="M132.252,258.002c-34.525,0-65.91-13.69-89.021-35.921v150.753
	c17.392,36.255,43.445,67.561,75.474,91.253h291.092c25.858-19.128,47.819-43.219,64.474-70.872v-236.97H257.945
	C245.605,214.307,193.939,258.002,132.252,258.002z"/>
<path style="fill:#D9EAFC;" d="M43.23,222.081v150.753c5.707,11.897,12.365,23.25,19.843,33.987V237.75
	C55.948,233.181,49.305,227.924,43.23,222.081z"/>
<path style="fill:#293D7C;" d="M463.468,90.267H254.621c3.977,12.374,6.133,25.556,6.133,39.234c0,9.523-1.051,18.805-3.025,27.744
	H474.27v-56.176C474.27,95.127,469.409,90.267,463.468,90.267z"/>
<path style="fill:#E26693;" d="M383.08,130.777c-2.139,0-4.224-0.865-5.735-2.366c-1.502-1.512-2.366-3.597-2.366-5.735
	c0-2.129,0.864-4.213,2.366-5.725c1.512-1.513,3.597-2.377,5.735-2.377c2.128,0,4.224,0.864,5.725,2.377
	c1.513,1.512,2.377,3.596,2.377,5.725c0,2.138-0.864,4.223-2.377,5.735C387.304,129.912,385.208,130.777,383.08,130.777z"/>
<path style="fill:#FFAF10;" d="M409.647,130.777c-2.128,0-4.224-0.865-5.726-2.377c-1.512-1.501-2.376-3.586-2.376-5.724
	c0-2.129,0.864-4.213,2.376-5.725c1.513-1.513,3.598-2.377,5.726-2.377c2.139,0,4.223,0.864,5.736,2.377
	c1.501,1.512,2.365,3.596,2.365,5.725c0,2.128-0.864,4.223-2.365,5.724C413.87,129.912,411.786,130.777,409.647,130.777z"/>
<path style="fill:#37C47A;" d="M436.226,130.777c-2.139,0-4.224-0.865-5.725-2.366c-1.513-1.512-2.377-3.597-2.377-5.735
	c0-2.129,0.864-4.213,2.377-5.725c1.501-1.513,3.586-2.377,5.725-2.377c2.128,0,4.224,0.864,5.725,2.377
	c1.513,1.512,2.377,3.596,2.377,5.725c0,2.138-0.864,4.223-2.377,5.735C440.439,129.912,438.353,130.777,436.226,130.777z"/>
<path style="fill:#FFAF10;" d="M134.02,406.657c0,1.65-1.35,3-3,3H98.641c-1.65,0-3-1.35-3-3v-51.568c0-1.65,1.35-3,3-3h32.379
	c1.65,0,3,1.35,3,3V406.657z"/>
<path style="fill:#EF9614;" d="M115.483,406.657v-51.568c0-1.65,1.35-3,3-3H98.641c-1.65,0-3,1.35-3,3v51.568c0,1.65,1.35,3,3,3
	h19.843C116.833,409.657,115.483,408.307,115.483,406.657z"/>
<path style="fill:#FFAF10;" d="M181.993,406.657c0,1.65-1.35,3-3,3h-32.379c-1.65,0-3-1.35-3-3v-118.73c0-1.65,1.35-3,3-3h32.379
	c1.65,0,3,1.35,3,3V406.657z"/>
<path style="fill:#EF9614;" d="M163.457,406.657v-118.73c0-1.65,1.35-3,3-3h-19.843c-1.65,0-3,1.35-3,3v118.73c0,1.65,1.35,3,3,3
	h19.843C164.807,409.657,163.457,408.307,163.457,406.657z"/>
<path style="fill:#37C47A;" d="M229.966,406.657c0,1.65-1.35,3-3,3h-32.379c-1.65,0-3-1.35-3-3V273.534c0-1.65,1.35-3,3-3h32.379
	c1.65,0,3,1.35,3,3V406.657z"/>
<path style="fill:#02AF8E;" d="M211.43,406.657V273.534c0-1.65,1.35-3,3-3h-19.843c-1.65,0-3,1.35-3,3v133.122c0,1.65,1.35,3,3,3
	h19.843C212.779,409.657,211.43,408.307,211.43,406.657z"/>
<g>
	<path style="fill:#37C47A;" d="M277.94,406.657c0,1.65-1.35,3-3,3h-32.379c-1.65,0-3-1.35-3-3V290.325c0-1.65,1.35-3,3-3h32.379
		c1.65,0,3,1.35,3,3V406.657z"/>
	<path style="fill:#37C47A;" d="M325.913,406.657c0,1.65-1.35,3-3,3h-32.379c-1.65,0-3-1.35-3-3V266.338c0-1.65,1.35-3,3-3h32.379
		c1.65,0,3,1.35,3,3V406.657z"/>
</g>
<g>
	<path style="fill:#02AF8E;" d="M259.403,406.657V290.325c0-1.65,1.35-3,3-3H242.56c-1.65,0-3,1.35-3,3v116.331c0,1.65,1.35,3,3,3
		h19.843C260.753,409.657,259.403,408.307,259.403,406.657z"/>
	<path style="fill:#02AF8E;" d="M307.377,406.657V266.338c0-1.65,1.35-3,3-3h-19.843c-1.65,0-3,1.35-3,3v140.318c0,1.65,1.35,3,3,3
		h19.843C308.727,409.657,307.377,408.307,307.377,406.657z"/>
</g>
<g>
	<path style="fill:#69CDFF;" d="M373.886,406.657c0,1.65-1.35,3-3,3h-32.379c-1.65,0-3-1.35-3-3V235.156c0-1.65,1.35-3,3-3h32.379
		c1.65,0,3,1.35,3,3V406.657z"/>
	<path style="fill:#69CDFF;" d="M421.859,406.657c0,1.65-1.35,3-3,3H386.48c-1.65,0-3-1.35-3-3V220.764c0-1.65,1.35-3,3-3h32.379
		c1.65,0,3,1.35,3,3V406.657z"/>
</g>
<g>
	<path style="fill:#52BBEF;" d="M355.35,406.657V235.156c0-1.65,1.35-3,3-3h-19.843c-1.65,0-3,1.35-3,3v171.501c0,1.65,1.35,3,3,3
		h19.843C356.699,409.657,355.35,408.307,355.35,406.657z"/>
	<path style="fill:#52BBEF;" d="M403.323,406.657V220.764c0-1.65,1.35-3,3-3H386.48c-1.65,0-3,1.35-3,3v185.893c0,1.65,1.35,3,3,3
		h19.843C404.673,409.657,403.323,408.307,403.323,406.657z"/>
</g>
<path style="fill:#91E0E8;" d="M132.252,259.002c-71.407,0-129.502-58.094-129.502-129.501S60.845,0,132.252,0
	s129.502,58.094,129.502,129.501S203.659,259.002,132.252,259.002z"/>
<circle style="fill:#5DC1D8;" cx="132.25" cy="129.5" r="102"/>
<path style="fill:#28A5A5;" d="M50.093,129.501c0-52.986,40.403-96.531,92.081-101.52c-3.266-0.315-6.574-0.482-9.922-0.482
	C75.919,27.5,30.25,73.167,30.25,129.501s45.669,102.001,102.002,102.001c3.348,0,6.656-0.167,9.922-0.481
	C90.496,226.032,50.093,182.487,50.093,129.501z"/>
<path style="fill:#A53535;" d="M132.252,41.172c-25.521,0-46.208,7.668-46.208,33.189v17.034c0-25.521,20.688-33.189,46.208-33.189
	c25.521,0,46.208,7.668,46.208,33.189V74.361C178.46,48.841,157.773,41.172,132.252,41.172z"/>
<path style="fill:#FFFFFF;" d="M178.795,170.177h-32.177v5.567c0,7.921-6.444,14.366-14.366,14.366s-14.366-6.445-14.366-14.366
	v-5.567H85.709c-9.348,0-16.926,7.578-16.926,16.926v22.247c17.42,13.864,39.475,22.153,63.469,22.153s46.049-8.289,63.469-22.153
	v-22.247C195.721,177.754,188.143,170.177,178.795,170.177z"/>
<path style="fill:#D9EAFC;" d="M88.626,187.103c0-9.348,7.578-16.926,16.926-16.926H85.709c-9.348,0-16.926,7.578-16.926,16.926
	v22.247c6.084,4.842,12.743,8.985,19.843,12.352V187.103z"/>
<g>
	<path style="fill:#FFDD8D;" d="M132.252,166.756c-5.393,0-10.566-0.953-15.366-2.693v11.681c0,8.487,6.879,15.366,15.366,15.366
		s15.366-6.879,15.366-15.366v-11.681C142.818,165.803,137.645,166.756,132.252,166.756z"/>
	<path style="fill:#FFDD8D;" d="M87.044,121.547V97.63c-7.409,1.804-12.915,8.465-12.915,16.428v4.897
		c0,8.775,6.677,15.989,15.229,16.84C87.865,131.313,87.044,126.525,87.044,121.547z"/>
	<path style="fill:#FFDD8D;" d="M177.46,97.63v23.917c0,4.979-0.821,9.766-2.314,14.249c8.552-0.851,15.229-8.065,15.229-16.84
		v-4.897C190.375,106.095,184.869,99.434,177.46,97.63z"/>
</g>
<path style="fill:#FFE2B8;" d="M178.46,121.547c0,25.521-20.687,46.209-46.208,46.209l0,0c-25.521,0-46.208-20.688-46.208-46.209
	V90.396c0-25.521,20.688-33.189,46.208-33.189l0,0c25.521,0,46.208,7.668,46.208,33.189L178.46,121.547L178.46,121.547z"/>
<path style="fill:#FFC987;" d="M99.387,121.547V90.396c0-23.254,17.179-31.683,39.537-32.997c-2.18-0.128-4.405-0.192-6.672-0.192
	c-25.521,0-46.208,7.668-46.208,33.189v31.151c0,25.521,20.688,46.209,46.208,46.209c2.267,0,4.492-0.171,6.672-0.486
	C116.565,164.036,99.387,144.801,99.387,121.547z"/>
<g>
	<path style="fill:#A53535;" d="M109.537,122.111c-4.143,0-7.5-3.358-7.5-7.5V104.59c0-4.142,3.357-7.5,7.5-7.5s7.5,3.358,7.5,7.5
		v10.021C117.037,118.753,113.68,122.111,109.537,122.111z"/>
	<path style="fill:#A53535;" d="M154.967,122.111c-4.143,0-7.5-3.358-7.5-7.5V104.59c0-4.142,3.357-7.5,7.5-7.5s7.5,3.358,7.5,7.5
		v10.021C162.467,118.753,159.109,122.111,154.967,122.111z"/>
</g>
<g>
</g>
<g>
</g>
<g>
</g>
<g>
</g>
<g>
</g>
<g>
</g>
<g>
</g>
<g>
</g>
<g>
</g>
<g>
</g>
<g>
</g>
<g>
</g>
<g>
</g>
<g>
</g>
<g>
</g>
</svg>
