<?xml version="1.0" encoding="iso-8859-1"?>
<!-- Generator: Adobe Illustrator 19.0.0, SVG Export Plug-In . SVG Version: 6.00 Build 0)  -->
<svg version="1.1" id="Layer_1" xmlns="http://www.w3.org/2000/svg" xmlns:xlink="http://www.w3.org/1999/xlink" x="0px" y="0px"
	 viewBox="0 0 512 512" style="enable-background:new 0 0 512 512;" xml:space="preserve">
<g>
	<circle style="fill:#29ABE2;" cx="236.805" cy="127.857" r="117.658"/>
	<path style="fill:#29ABE2;" d="M400.386,318.357c-40.29-44.716-98.647-72.835-163.577-72.835
		c-121.571,0-220.125,98.553-220.125,220.125h313.895c-11.771-15.428-18.767-34.695-18.767-55.599
		C311.812,360.44,351.185,320.034,400.386,318.357z"/>
</g>
<path style="fill:#BDCCD4;" d="M403.564,318.297c-1.065,0-2.122,0.024-3.179,0.061c-49.201,1.676-88.574,42.083-88.574,91.692
	c0,20.903,6.996,40.171,18.767,55.599c16.763,21.97,43.217,36.152,72.987,36.152c50.674,0,91.752-41.078,91.752-91.752
	S454.238,318.297,403.564,318.297z"/>
<path d="M138.43,300.637c-44.199,26.405-76.418,70.135-88.394,119.975c-1.317,5.477,2.057,10.984,7.534,12.3
	c0.801,0.193,1.602,0.285,2.392,0.285c4.606,0,8.785-3.143,9.909-7.819c10.703-44.538,39.505-83.622,79.021-107.23
	c4.835-2.888,6.414-9.151,3.525-13.986C149.526,299.325,143.264,297.747,138.43,300.637z"/>
<path d="M236.809,273.563c-15.038,0-30.016,1.745-44.517,5.187c-5.481,1.3-8.869,6.798-7.568,12.279
	c1.113,4.69,5.296,7.846,9.915,7.846c0.78,0,1.572-0.09,2.363-0.278c12.961-3.076,26.354-4.636,39.807-4.636
	c5.633,0,10.199-4.566,10.199-10.199S242.442,273.563,236.809,273.563z"/>
<path d="M404.816,308.113c-1.685-1.797-3.393-3.579-5.143-5.329c-29.761-29.762-66.236-50.37-106.007-60.423
	c42.048-20.964,71.004-64.411,71.004-114.5C364.669,57.358,307.311,0,236.809,0S108.948,57.358,108.948,127.86
	c0,50.089,28.957,93.536,71.004,114.5c-39.771,10.053-76.245,30.661-106.007,60.423c-43.502,43.502-67.46,101.341-67.46,162.864
	c0,5.633,4.566,10.199,10.199,10.199h309.072C344.472,497.944,372.406,512,403.564,512c56.216,0,101.951-45.735,101.951-101.951
	C505.515,354.251,460.456,308.787,404.816,308.113z M129.346,127.86c0-59.254,48.208-107.462,107.463-107.462
	S344.271,68.606,344.271,127.86s-48.208,107.463-107.462,107.463S129.346,187.116,129.346,127.86z M27.128,455.448
	c5.338-111.036,97.347-199.727,209.681-199.727c54.695,0,104.564,21.035,141.963,55.431c-44.274,11.103-77.159,51.23-77.159,98.897
	c0,16.302,3.852,31.72,10.686,45.4H27.128z M403.564,491.602c-44.968,0-81.553-36.585-81.553-81.553s36.585-81.553,81.553-81.553
	s81.553,36.585,81.553,81.553S448.532,491.602,403.564,491.602z"/>
<path d="M424.115,371.689c-3.983-3.983-10.441-3.983-14.425,0c-3.983,3.983-3.983,10.441,0,14.425l15.584,15.584h-63.457
	c-5.633,0-10.199,4.566-10.199,10.199c0,5.633,4.566,10.199,10.199,10.199h63.231l-15.358,15.358
	c-3.983,3.983-3.984,10.441,0,14.424c1.992,1.992,4.602,2.987,7.212,2.987s5.221-0.996,7.212-2.987l32.882-32.882
	c1.912-1.912,2.987-4.507,2.987-7.212s-1.075-5.3-2.987-7.212L424.115,371.689z"/>
<g>
</g>
<g>
</g>
<g>
</g>
<g>
</g>
<g>
</g>
<g>
</g>
<g>
</g>
<g>
</g>
<g>
</g>
<g>
</g>
<g>
</g>
<g>
</g>
<g>
</g>
<g>
</g>
<g>
</g>
</svg>
