<?xml version="1.0" encoding="iso-8859-1"?>
<!-- Generator: Adobe Illustrator 19.0.0, SVG Export Plug-In . SVG Version: 6.00 Build 0)  -->
<svg version="1.1" id="Capa_1" xmlns="http://www.w3.org/2000/svg" xmlns:xlink="http://www.w3.org/1999/xlink" x="0px" y="0px"
	 viewBox="0 0 512 512" style="enable-background:new 0 0 512 512;" xml:space="preserve">
<circle style="fill:#00EED1;" cx="256" cy="256" r="256"/>
<path style="fill:#00AF95;" d="M511.54,271.177L310.721,70.358c-13.42-15.068-32.958-24.567-54.722-24.567
	c-40.466,0-73.27,32.804-73.27,73.27c0,9.92,1.982,19.375,5.554,28.004h-49.344v30.165h-9.447l20.841,30.333l11.375,11.409H63.144
	c-3.827,0-6.958,3.131-6.958,6.958v114.906c0,1.897,0.77,3.622,2.014,4.879l47.378,47.217c0,0.033-0.005,0.065-0.005,0.099v7.809
	L213.14,508.407C227.077,510.758,241.393,512,256,512C392.288,512,503.685,405.495,511.54,271.177z"/>
<rect x="121.02" y="346.89" style="fill:#FFEE93;" width="58.63" height="33.657"/>
<rect x="150.33" y="346.89" style="fill:#FFDC00;" width="29.31" height="33.655"/>
<path style="fill:#FFFFFF;" d="M237.519,347.795H63.144c-3.827,0-6.958-3.131-6.958-6.958V225.93c0-3.827,3.131-6.958,6.958-6.958
	h174.375c3.827,0,6.958,3.131,6.958,6.958v114.906C244.477,344.664,241.346,347.795,237.519,347.795z"/>
<path style="fill:#FFEE93;" d="M244.482,225.931v114.91c0,3.82-3.14,6.95-6.96,6.95h-87.19v-128.82h87.19
	C241.342,218.971,244.482,222.101,244.482,225.931z"/>
<rect x="66.31" y="229.5" style="fill:#7486EF;" width="168.04" height="107.37"/>
<rect x="150.33" y="229.5" style="fill:#052AE3;" width="84.02" height="107.36"/>
<path style="fill:#FFFFFF;" d="M195.091,400.841h-89.52v-7.81c0-7.628,6.184-13.812,13.812-13.812h61.896
	c7.628,0,13.812,6.184,13.812,13.812V400.841z"/>
<g>
	<path style="fill:#FFEE93;" d="M195.092,393.031v7.81h-44.76v-21.62h30.95C188.912,379.22,195.092,385.401,195.092,393.031z"/>
	<rect x="332.35" y="346.89" style="fill:#FFEE93;" width="58.63" height="33.657"/>
</g>
<rect x="361.67" y="346.89" style="fill:#FFDC00;" width="29.31" height="33.655"/>
<path style="fill:#FFFFFF;" d="M448.852,347.795H274.477c-3.827,0-6.958-3.131-6.958-6.958V225.93c0-3.827,3.131-6.958,6.958-6.958
	h174.375c3.827,0,6.958,3.131,6.958,6.958v114.906C455.811,344.664,452.679,347.795,448.852,347.795z"/>
<path style="fill:#FFEE93;" d="M455.815,225.931v114.91c0,3.82-3.14,6.95-6.96,6.95h-87.19v-128.82h87.19
	C452.675,218.971,455.815,222.101,455.815,225.931z"/>
<rect x="277.65" y="229.5" style="fill:#FF4F19;" width="168.04" height="107.37"/>
<rect x="361.67" y="229.5" style="fill:#BB1000;" width="84.02" height="107.36"/>
<path style="fill:#FFFFFF;" d="M406.424,400.841h-89.52v-7.81c0-7.628,6.184-13.812,13.812-13.812h61.896
	c7.628,0,13.812,6.184,13.812,13.812L406.424,400.841L406.424,400.841z"/>
<path style="fill:#FFEE93;" d="M406.425,393.031v7.81h-44.76v-21.62h30.95C400.245,379.22,406.425,385.401,406.425,393.031z"/>
<polygon style="fill:#FFFFFF;" points="382.508,177.23 373.061,177.23 373.061,147.065 138.939,147.065 138.939,177.23 
	129.492,177.23 150.333,207.563 171.175,177.23 161.728,177.23 161.728,165.732 350.272,165.732 350.272,177.23 340.825,177.23 
	361.666,207.563 "/>
<circle style="fill:#77767E;" cx="256" cy="119.06" r="73.27"/>
<path style="fill:#3A383F;" d="M329.271,119.062c0,40.467-32.804,73.271-73.271,73.271V45.791
	C296.467,45.791,329.271,78.595,329.271,119.062z"/>
<path style="fill:#FFFFFF;" d="M296.625,123.327c2.453-4.71,3.826-9.92,3.826-15.407c0-20.968-19.902-37.966-44.453-37.966
	s-44.452,16.998-44.452,37.966c0,5.487,1.374,10.698,3.826,15.407c-3.286,2.728-5.381,6.843-5.381,11.448
	c0,8.214,6.659,14.873,14.873,14.873c3.54,0,6.787-1.242,9.341-3.307v12.83c0,4.968,4.027,8.995,8.995,8.995h1.073v-21.152h8.022
	v21.152h7.405v-21.152h8.022v21.152h1.073c4.968,0,8.995-4.027,8.995-8.995v-12.83c2.554,2.065,5.801,3.307,9.341,3.307
	c8.214,0,14.873-6.659,14.873-14.873C302.006,130.17,299.912,126.056,296.625,123.327z M239.689,113.603h-1.294
	c-5.98,0-10.873-4.893-10.873-10.873v-1.198c0-5.98,4.893-10.873,10.873-10.873h1.294c5.98,0,10.873,4.893,10.873,10.873v1.198
	C250.562,108.71,245.67,113.603,239.689,113.603z M261.362,130.163h-10.727c-2.407,0-3.884-2.636-2.628-4.689l5.363-8.765
	c1.202-1.964,4.054-1.964,5.256,0l5.363,8.765C265.247,127.527,263.769,130.163,261.362,130.163z M284.475,102.73
	c0,5.98-4.893,10.873-10.873,10.873h-1.294c-5.98,0-10.873-4.893-10.873-10.873v-1.198c0-5.98,4.893-10.873,10.873-10.873h1.294
	c5.98,0,10.873,4.893,10.873,10.873V102.73z"/>
<path style="fill:#76FDF5;" d="M296.625,123.325c2.452-4.706,3.828-9.917,3.828-15.407c0-20.933-19.835-37.906-44.332-37.964v45.29
	c0.973,0.037,1.925,0.52,2.503,1.464l5.365,8.768c1.259,2.049-0.22,4.684-2.628,4.684h-5.24v38.008h3.579v-21.152h8.022v21.152
	h1.076c4.97,0,8.995-4.033,8.995-8.995v-12.83c2.554,2.064,5.797,3.308,9.339,3.308c8.212,0,14.872-6.66,14.872-14.88
	C302.004,130.168,299.911,126.055,296.625,123.325z M284.475,102.729c0,5.98-4.889,10.876-10.869,10.876h-1.296
	c-5.98,0-10.876-4.896-10.876-10.876v-1.2c0-5.98,4.896-10.869,10.876-10.869h1.296c5.98,0,10.869,4.889,10.869,10.869V102.729z"/>
<g>
</g>
<g>
</g>
<g>
</g>
<g>
</g>
<g>
</g>
<g>
</g>
<g>
</g>
<g>
</g>
<g>
</g>
<g>
</g>
<g>
</g>
<g>
</g>
<g>
</g>
<g>
</g>
<g>
</g>
</svg>
