<?xml version="1.0" encoding="iso-8859-1"?>
<!-- Generator: Adobe Illustrator 19.0.0, SVG Export Plug-In . SVG Version: 6.00 Build 0)  -->
<svg version="1.1" id="Capa_1" xmlns="http://www.w3.org/2000/svg" xmlns:xlink="http://www.w3.org/1999/xlink" x="0px" y="0px"
	 viewBox="0 0 512 512" style="enable-background:new 0 0 512 512;" xml:space="preserve">
<path style="fill:#1BD9DE;" d="M331,30H181c-8.401,0-15,6.599-15,15v152c0,8.401,6.599,15,15,15h150c8.401,0,15-6.599,15-15V45
	C346,36.599,339.401,30,331,30z"/>
<path style="fill:#15B7BE;" d="M346,45v152c0,8.401-6.599,15-15,15h-75V30h75C339.401,30,346,36.599,346,45z"/>
<path style="fill:#1DE8F1;" d="M497,182H15c-8.401,0-15,6.599-15,15v150c0,8.401,6.599,15,15,15h196l45-45l-30-75l30,24.901L316,317
	l-40.499,40.499C278.2,360.5,281.8,362,286,362h211c8.401,0,15-6.599,15-15V197C512,188.599,505.401,182,497,182z"/>
<path style="fill:#17ACE8;" d="M268.297,398.599c-2.695-4.199-7.5-5.999-12.297-5.999s-9.602,1.8-12.297,5.999
	C233.8,412.7,211,447.8,211,467c0,24.901,20.098,45,45,45s45-20.099,45-45C301,447.8,278.2,412.7,268.297,398.599z"/>
<path style="fill:#1689FC;" d="M268.297,398.599C278.2,412.7,301,447.8,301,467c0,24.901-20.098,45-45,45V392.601
	C260.797,392.601,265.602,394.401,268.297,398.599z"/>
<path style="fill:#1BD9DE;" d="M512,197v150c0,8.401-6.599,15-15,15H286c-4.2,0-7.8-1.5-10.499-4.501L316,317l-60-50.099V182h241
	C505.401,182,512,188.599,512,197z"/>
<path style="fill:#B7E0F6;" d="M91,392c-16.553,0-30-13.462-30-30V182c0-16.538,13.447-30,30-30s30,13.462,30,30v180
	C121,378.538,107.553,392,91,392z"/>
<path style="fill:#A4D9F5;" d="M421,392c-16.553,0-30-13.462-30-30V182c0-16.538,13.447-30,30-30s30,13.462,30,30v180
	C451,378.538,437.553,392,421,392z"/>
<path style="fill:#B7E0F6;" d="M166,60c-16.553,0-30-13.462-30-30s13.447-30,30-30h180c16.553,0,30,13.462,30,30s-13.447,30-30,30
	H166z"/>
<path style="fill:#A4D9F5;" d="M346,0h-90v60h90c16.553,0,30-13.462,30-30S362.553,0,346,0z"/>
<g>
</g>
<g>
</g>
<g>
</g>
<g>
</g>
<g>
</g>
<g>
</g>
<g>
</g>
<g>
</g>
<g>
</g>
<g>
</g>
<g>
</g>
<g>
</g>
<g>
</g>
<g>
</g>
<g>
</g>
</svg>
