<?xml version="1.0" encoding="iso-8859-1"?>
<!-- Generator: Adobe Illustrator 19.0.0, SVG Export Plug-In . SVG Version: 6.00 Build 0)  -->
<svg version="1.1" id="Capa_1" xmlns="http://www.w3.org/2000/svg" xmlns:xlink="http://www.w3.org/1999/xlink" x="0px" y="0px"
	 viewBox="0 0 512 512" style="enable-background:new 0 0 512 512;" xml:space="preserve">
<g>
	<rect x="80.24" y="175.12" style="fill:#8D8D98;" width="53.06" height="160.02"/>
	<rect x="378.7" y="175.12" style="fill:#8D8D98;" width="53.06" height="160.02"/>
</g>
<g>
	<rect x="133.3" y="198.711" style="fill:#B6B6C5;" width="245.4" height="112.83"/>
	<rect x="431.76" y="198.711" style="fill:#B6B6C5;" width="70.24" height="112.83"/>
	<rect x="10" y="198.711" style="fill:#B6B6C5;" width="70.24" height="112.83"/>
</g>
<path d="M333.63,242.891c-2.63,0-5.21-1.07-7.07-2.93c-1.86-1.86-2.93-4.44-2.93-7.07c0-0.649,0.07-1.309,0.2-1.95
	c0.12-0.64,0.32-1.27,0.57-1.88c0.25-0.6,0.56-1.18,0.91-1.72c0.37-0.55,0.789-1.06,1.25-1.521c0.46-0.46,0.97-0.88,1.52-1.25
	c0.539-0.359,1.12-0.659,1.72-0.909c0.61-0.25,1.24-0.45,1.87-0.58c1.29-0.261,2.62-0.261,3.91,0c0.64,0.13,1.27,0.33,1.87,0.58
	c0.61,0.25,1.19,0.55,1.73,0.909c0.55,0.37,1.06,0.79,1.52,1.25c0.46,0.461,0.88,0.971,1.24,1.521c0.36,0.54,0.67,1.12,0.92,1.72
	c0.25,0.61,0.45,1.24,0.57,1.88c0.13,0.641,0.2,1.301,0.2,1.95c0,2.63-1.07,5.21-2.93,7.07c-0.46,0.46-0.97,0.88-1.52,1.24
	c-0.54,0.359-1.12,0.67-1.73,0.92c-0.6,0.25-1.23,0.449-1.87,0.569C334.94,242.821,334.28,242.891,333.63,242.891z"/>
<path style="fill:#00C974;" d="M256,57.054L256,57.054L256,57.054c-27.951-14.835-59.112-22.593-90.756-22.593H136.43v69.65h239.14
	v-69.65h-28.814C315.112,34.462,283.951,42.219,256,57.054z"/>
<g>
	<path style="fill:#D8D8E7;" d="M256,57.054c13.004-6.902,26.708-12.274,40.828-16.043V10.334h-81.655v30.677
		C229.292,44.781,242.997,50.152,256,57.054z"/>
	<rect x="215.17" y="104.111" style="fill:#D8D8E7;" width="81.66" height="94.6"/>
</g>
<g>
	<path style="fill:#4BE2FF;" d="M436.505,470.395c0,17.272-14.002,31.274-31.274,31.274c-17.272,0-31.274-14.002-31.274-31.274
		c0-17.272,31.274-49.747,31.274-49.747S436.505,453.123,436.505,470.395z"/>
	<path style="fill:#4BE2FF;" d="M426.597,399.219c0,11.8-9.566,21.366-21.366,21.366s-21.366-9.566-21.366-21.366
		s21.366-33.935,21.366-33.935S426.597,387.419,426.597,399.219z"/>
</g>
<path d="M502.001,188.715h-60.238v-13.596c0-5.523-4.477-10-10-10h-53.064c-5.523,0-10,4.477-10,10v13.596h-61.871v-74.604h68.742
	c5.523,0,10-4.478,10-10v-69.65c0-5.523-4.477-10-10-10h-28.814c-13.413,0-26.8,1.356-39.928,3.987V10.333c0-5.522-4.477-10-10-10
	h-81.655c-5.523,0-10,4.478-10,10v18.115c-13.128-2.631-26.515-3.987-39.928-3.987h-28.814c-5.523,0-10,4.477-10,10v69.65
	c0,5.522,4.477,10,10,10h68.742v74.604h-61.871v-13.596c0-5.523-4.477-10-10-10H80.238c-5.523,0-10,4.477-10,10v13.596H10
	c-5.523,0-10,4.477-10,10v112.83c0,5.522,4.477,10,10,10h60.238v13.596c0,5.522,4.477,10,10,10h53.064c5.523,0,10-4.478,10-10
	v-13.596h225.396v13.596c0,5.522,4.477,10,10,10h53.064c5.523,0,10-4.478,10-10v-13.596H502c5.523,0,10-4.478,10-10v-112.83
	C512.001,193.193,507.524,188.715,502.001,188.715z M225.173,33.483v-13.15h61.655v13.149c-6.837,2.107-13.563,4.581-20.142,7.394
	c-0.009,0.004-0.018,0.008-0.027,0.012c-1.622,0.694-3.232,1.412-4.835,2.148c-0.316,0.145-0.632,0.289-0.947,0.436
	c-1.635,0.76-3.263,1.534-4.877,2.338c-1.614-0.803-3.242-1.577-4.877-2.338c-0.315-0.146-0.631-0.291-0.947-0.436
	c-1.603-0.736-3.213-1.454-4.835-2.148c-0.009-0.004-0.018-0.008-0.027-0.012C238.736,38.063,232.01,35.59,225.173,33.483z
	 M146.431,44.461h18.814c18.656,0,37.26,2.886,55.029,8.462c0.052,0.016,0.104,0.032,0.156,0.049
	c1.657,0.521,3.305,1.07,4.947,1.638c0.163,0.057,0.326,0.112,0.489,0.169c1.514,0.529,3.019,1.081,4.518,1.649
	c0.271,0.103,0.544,0.203,0.815,0.307c1.382,0.531,2.755,1.085,4.124,1.649c0.362,0.15,0.726,0.293,1.087,0.445
	c1.279,0.537,2.549,1.097,3.816,1.663c0.424,0.19,0.851,0.371,1.273,0.564c1.243,0.567,2.475,1.158,3.706,1.752
	c0.42,0.203,0.844,0.396,1.262,0.603c1.573,0.775,3.136,1.574,4.686,2.395c0.052,0.028,0.106,0.053,0.158,0.081
	c0.498,0.265,1.017,0.467,1.544,0.642c2.055,0.682,4.272,0.679,6.326-0.011c0.514-0.173,1.021-0.372,1.508-0.631
	c0.052-0.028,0.106-0.053,0.158-0.081c1.551-0.821,3.113-1.62,4.686-2.395c0.418-0.206,0.843-0.4,1.262-0.603
	c1.23-0.595,2.463-1.185,3.706-1.752c0.422-0.193,0.85-0.374,1.273-0.564c1.267-0.566,2.537-1.126,3.816-1.663
	c0.361-0.152,0.725-0.296,1.087-0.445c1.369-0.564,2.742-1.118,4.124-1.649c0.271-0.104,0.543-0.204,0.815-0.307
	c1.499-0.568,3.005-1.121,4.518-1.649c0.163-0.057,0.326-0.112,0.489-0.169c1.642-0.568,3.29-1.116,4.947-1.638
	c0.052-0.016,0.104-0.033,0.156-0.049c17.769-5.576,36.373-8.462,55.029-8.462h18.814v49.65l0,0H146.431l0,0V44.461z
	 M225.173,114.112h61.655v74.604h-61.655V114.112z M20,301.545v-92.83h50.238v92.83H20z M123.302,325.141H90.238l0,0V185.12l0,0
	h33.064l0,0V325.141L123.302,325.141z M143.302,301.545v-58.654h151.713c5.523,0,10-4.477,10-10c0-5.522-4.477-10-10-10H143.302
	v-14.176l0,0h225.396l0,0v92.83H143.302z M421.763,325.141h-33.064l0,0V185.12l0,0h33.064l0,0V325.141L421.763,325.141z
	 M492.001,301.545h-50.238v-92.83h50.238V301.545z"/>
<path d="M436.597,399.219c0-14.696-18.501-35.005-24.171-40.88c-1.884-1.952-4.482-3.055-7.195-3.055s-5.311,1.103-7.195,3.055
	c-5.67,5.874-24.172,26.184-24.172,40.88c0,10.821,5.509,20.379,13.869,26.019c-10.249,12.288-23.777,31.156-23.777,45.156
	c0,22.759,18.516,41.274,41.274,41.274s41.274-18.516,41.274-41.274c0-14-13.528-32.869-23.777-45.156
	C431.088,419.599,436.597,410.04,436.597,399.219z M405.23,380.379c6.46,7.951,11.332,15.809,11.366,18.841
	c-0.001,6.267-5.099,11.365-11.366,11.365c-6.268,0-11.367-5.099-11.367-11.365C393.898,396.188,398.772,388.33,405.23,380.379z
	 M405.231,491.669c-11.731,0-21.274-9.544-21.274-21.274c0-6.727,10.063-21.803,21.274-34.868
	c11.212,13.067,21.274,28.142,21.274,34.868C426.505,482.126,416.961,491.669,405.231,491.669z"/>
<g>
</g>
<g>
</g>
<g>
</g>
<g>
</g>
<g>
</g>
<g>
</g>
<g>
</g>
<g>
</g>
<g>
</g>
<g>
</g>
<g>
</g>
<g>
</g>
<g>
</g>
<g>
</g>
<g>
</g>
</svg>
