<?xml version="1.0" encoding="iso-8859-1"?>
<!-- Generator: Adobe Illustrator 19.0.0, SVG Export Plug-In . SVG Version: 6.00 Build 0)  -->
<svg version="1.1" id="Capa_1" xmlns="http://www.w3.org/2000/svg" xmlns:xlink="http://www.w3.org/1999/xlink" x="0px" y="0px"
	 viewBox="0 0 512 512" style="enable-background:new 0 0 512 512;" xml:space="preserve">
<g>
	<polygon style="fill:#A4C2F7;" points="448,128 328.533,8.533 234.667,8.533 234.667,503.467 448,503.467 	"/>
	<polygon style="fill:#FFFFFF;" points="277.333,128 157.867,8.533 64,8.533 64,503.467 277.333,503.467 	"/>
	
		<linearGradient id="SVGID_1_" gradientUnits="userSpaceOnUse" x1="-49.0515" y1="652.5855" x2="-47.8079" y2="651.7493" gradientTransform="matrix(332.8 0 0 -494.9333 16347.7979 323061.0313)">
		<stop  offset="0" style="stop-color:#D4E1F4"/>
		<stop  offset="0.1717" style="stop-color:#D4E1F4"/>
		<stop  offset="0.2" style="stop-color:#D4E1F4"/>
		<stop  offset="0.2001" style="stop-color:#DAE4F4"/>
		<stop  offset="0.2007" style="stop-color:#EBEBF4"/>
		<stop  offset="0.2014" style="stop-color:#F6F1F4"/>
		<stop  offset="0.2023" style="stop-color:#FDF4F4"/>
		<stop  offset="0.205" style="stop-color:#FFF5F4"/>
		<stop  offset="0.2522" style="stop-color:#FFF5F4"/>
		<stop  offset="0.26" style="stop-color:#FFF5F4"/>
		<stop  offset="0.26" style="stop-color:#D4E1F4"/>
		<stop  offset="0.3974" style="stop-color:#D4E1F4"/>
		<stop  offset="0.42" style="stop-color:#D4E1F4"/>
		<stop  offset="0.4201" style="stop-color:#DAE4F4"/>
		<stop  offset="0.4207" style="stop-color:#EBEBF4"/>
		<stop  offset="0.4214" style="stop-color:#F6F1F4"/>
		<stop  offset="0.4223" style="stop-color:#FDF4F4"/>
		<stop  offset="0.425" style="stop-color:#FFF5F4"/>
		<stop  offset="0.4894" style="stop-color:#FFF5F4"/>
		<stop  offset="0.5" style="stop-color:#FFF5F4"/>
		<stop  offset="0.5" style="stop-color:#F9F2F4"/>
		<stop  offset="0.5001" style="stop-color:#E8EBF4"/>
		<stop  offset="0.5003" style="stop-color:#DDE5F4"/>
		<stop  offset="0.5005" style="stop-color:#D6E2F4"/>
		<stop  offset="0.501" style="stop-color:#D4E1F4"/>
		<stop  offset="0.7062" style="stop-color:#D4E1F4"/>
		<stop  offset="0.74" style="stop-color:#D4E1F4"/>
		<stop  offset="0.741" style="stop-color:#FFF5F4"/>
		<stop  offset="0.8346" style="stop-color:#FFF5F4"/>
		<stop  offset="0.85" style="stop-color:#FFF5F4"/>
		<stop  offset="0.851" style="stop-color:#D4E1F4"/>
	</linearGradient>
	<polygon style="fill:url(#SVGID_1_);" points="422.4,128 320,8.533 89.6,8.533 89.6,503.467 422.4,503.467 	"/>
	<polygon style="fill:#A4C2F7;" points="328.533,8.533 328.533,128 448,128 	"/>
	<g>
		<path style="fill:#428DFF;" d="M362.667,204.8H149.333c-4.713,0-8.533-3.821-8.533-8.533s3.821-8.533,8.533-8.533h213.333
			c4.713,0,8.533,3.821,8.533,8.533S367.38,204.8,362.667,204.8z"/>
		<path style="fill:#428DFF;" d="M234.667,136.533h-85.333c-4.713,0-8.533-3.821-8.533-8.533c0-4.713,3.821-8.533,8.533-8.533
			h85.333c4.713,0,8.533,3.821,8.533,8.533C243.2,132.713,239.38,136.533,234.667,136.533z"/>
		<path style="fill:#428DFF;" d="M362.667,273.067H149.333c-4.713,0-8.533-3.82-8.533-8.533s3.821-8.533,8.533-8.533h213.333
			c4.713,0,8.533,3.821,8.533,8.533S367.38,273.067,362.667,273.067z"/>
		<path style="fill:#428DFF;" d="M362.667,341.333H149.333c-4.713,0-8.533-3.82-8.533-8.533s3.821-8.533,8.533-8.533h213.333
			c4.713,0,8.533,3.82,8.533,8.533S367.38,341.333,362.667,341.333z"/>
		<path style="fill:#428DFF;" d="M362.667,409.6H149.333c-4.713,0-8.533-3.821-8.533-8.533s3.821-8.533,8.533-8.533h213.333
			c4.713,0,8.533,3.82,8.533,8.533S367.38,409.6,362.667,409.6z"/>
		<path style="fill:#428DFF;" d="M448,512H64c-2.263,0.001-4.434-0.898-6.035-2.499c-1.6-1.6-2.499-3.771-2.499-6.035V8.533
			c-0.001-2.263,0.898-4.434,2.499-6.035C59.566,0.898,61.737-0.001,64,0h264.533c2.263,0.001,4.433,0.9,6.033,2.5l119.467,119.467
			c1.601,1.6,2.5,3.77,2.5,6.033v375.467c0.001,2.263-0.898,4.434-2.499,6.035C452.434,511.102,450.263,512.001,448,512L448,512z
			 M72.533,494.933h366.933v-363.4L325,17.067H72.533V494.933z"/>
		<path style="fill:#428DFF;" d="M448,136.533H328.533c-2.263,0.001-4.434-0.898-6.035-2.499c-1.6-1.6-2.499-3.771-2.499-6.035
			V8.533c0-3.451,2.079-6.563,5.268-7.883c3.189-1.321,6.859-0.59,9.299,1.85l119.467,119.467c2.441,2.44,3.171,6.11,1.85,9.299
			C454.563,134.454,451.451,136.533,448,136.533z M337.067,119.467H427.4l-90.333-90.333V119.467z"/>
	</g>
</g>
<g>
</g>
<g>
</g>
<g>
</g>
<g>
</g>
<g>
</g>
<g>
</g>
<g>
</g>
<g>
</g>
<g>
</g>
<g>
</g>
<g>
</g>
<g>
</g>
<g>
</g>
<g>
</g>
<g>
</g>
</svg>
