<?xml version="1.0" encoding="iso-8859-1"?>
<!-- Generator: Adobe Illustrator 18.0.0, SVG Export Plug-In . SVG Version: 6.00 Build 0)  -->
<!DOCTYPE svg PUBLIC "-//W3C//DTD SVG 1.1//EN" "http://www.w3.org/Graphics/SVG/1.1/DTD/svg11.dtd">
<svg version="1.1" id="Capa_1" xmlns="http://www.w3.org/2000/svg" xmlns:xlink="http://www.w3.org/1999/xlink" x="0px" y="0px"
	 viewBox="0 0 60 60" style="enable-background:new 0 0 60 60;" xml:space="preserve">
<g>
	<path d="M35,36v24h24V36H35z M57,58h-9V45.414l4.293,4.293l1.414-1.414L47,41.586l-6.707,6.707l1.414,1.414L46,45.414V58h-9V38h20
		V58z"/>
	<path d="M48,14.586L33.414,0H1v60h31V48H12c-0.552,0-1-0.447-1-1s0.448-1,1-1h20v-6H12c-0.552,0-1-0.447-1-1s0.448-1,1-1h20v-5h16
		V14.586z M12,14h10c0.552,0,1,0.447,1,1s-0.448,1-1,1H12c-0.552,0-1-0.447-1-1S11.448,14,12,14z M37,32H12c-0.552,0-1-0.447-1-1
		s0.448-1,1-1h25c0.552,0,1,0.447,1,1S37.552,32,37,32z M37,24H12c-0.552,0-1-0.447-1-1s0.448-1,1-1h25c0.552,0,1,0.447,1,1
		S37.552,24,37,24z M32,16V2l14,14H32z"/>
</g>
<g>
</g>
<g>
</g>
<g>
</g>
<g>
</g>
<g>
</g>
<g>
</g>
<g>
</g>
<g>
</g>
<g>
</g>
<g>
</g>
<g>
</g>
<g>
</g>
<g>
</g>
<g>
</g>
<g>
</g>
</svg>
